{
  "accessors": [
    {
      "bufferView": 2,
      "componentType": 5126,
      "count": 1391,
      "max": [
        18.499265670776367,
        7.160406112670898,
        40.72130584716797
      ],
      "min": [
        -37.68073272705078,
        -120.58552551269531,
        7.400444030761719
      ],
      "type": "VEC3"
    },
    {
      "bufferView": 2,
      "byteOffset": 16692,
      "componentType": 5126,
      "count": 1391,
      "max": [
        1.0,
        0.9984683990478516,
        1.0
      ],
      "min": [
        -1.0,
        -1.0,
        -1.0
      ],
      "type": "VEC3"
    },
    {
      "bufferView": 1,
      "componentType": 5126,
      "count": 1391,
      "max": [
        0.9907200336456299,
        0.9924874901771545
      ],
      "min": [
        0.007158709689974785,
        0.006453990936279297
      ],
      "type": "VEC2"
    },
    {
      "bufferView": 0,
      "componentType": 5125,
      "count": 3930,
      "type": "SCALAR"
    },
    {
      "bufferView": 2,
      "byteOffset": 33384,
      "componentType": 5126,
      "count": 290,
      "max": [
        15.14242172241211,
        -86.5785140991211,
        18.538429260253906
      ],
      "min": [
        8.832708358764648,
        -104.5589828491211,
        0.5579652786254883
      ],
      "type": "VEC3"
    },
    {
      "bufferView": 2,
      "byteOffset": 36864,
      "componentType": 5126,
      "count": 290,
      "max": [
        0.9873823523521423,
        1.0,
        1.0
      ],
      "min": [
        -1.0,
        -1.0,
        -1.0
      ],
      "type": "VEC3"
    },
    {
      "bufferView": 1,
      "byteOffset": 11128,
      "componentType": 5126,
      "count": 290,
      "max": [
        0.9921945929527283,
        0.9948086738586426
      ],
      "min": [
        0.0043388232588768005,
        0.495608925819397
      ],
      "type": "VEC2"
    },
    {
      "bufferView": 0,
      "byteOffset": 15720,
      "componentType": 5125,
      "count": 318,
      "type": "SCALAR"
    },
    {
      "bufferView": 2,
      "byteOffset": 40344,
      "componentType": 5126,
      "count": 102,
      "max": [
        15.14242172241211,
        -89.42501068115234,
        15.691938400268555
      ],
      "min": [
        14.357236862182617,
        -101.71248626708984,
        3.40445613861084
      ],
      "type": "VEC3"
    },
    {
      "bufferView": 2,
      "byteOffset": 41568,
      "componentType": 5126,
      "count": 102,
      "max": [
        1.0,
        0.15305300056934357,
        0.15305273234844208
      ],
      "min": [
        0.9882179498672485,
        -0.15305280685424805,
        -0.15305277705192566
      ],
      "type": "VEC3"
    },
    {
      "bufferView": 1,
      "byteOffset": 13448,
      "componentType": 5126,
      "count": 102,
      "max": [
        0.11638566106557846,
        0.6076556444168091
      ],
      "min": [
        0.025413356721401215,
        0.5166833400726318
      ],
      "type": "VEC2"
    },
    {
      "bufferView": 0,
      "byteOffset": 16992,
      "componentType": 5125,
      "count": 102,
      "type": "SCALAR"
    },
    {
      "bufferView": 2,
      "byteOffset": 42792,
      "componentType": 5126,
      "count": 290,
      "max": [
        15.14242172241211,
        -86.5785140991211,
        18.538429260253906
      ],
      "min": [
        8.832708358764648,
        -104.5589828491211,
        0.5579652786254883
      ],
      "type": "VEC3"
    },
    {
      "bufferView": 2,
      "byteOffset": 46272,
      "componentType": 5126,
      "count": 290,
      "max": [
        0.9873823523521423,
        1.0,
        1.0
      ],
      "min": [
        -1.0,
        -1.0,
        -1.0
      ],
      "type": "VEC3"
    },
    {
      "bufferView": 1,
      "byteOffset": 14264,
      "componentType": 5126,
      "count": 290,
      "max": [
        0.9921945929527283,
        0.9948086738586426
      ],
      "min": [
        0.0043388232588768005,
        0.495608925819397
      ],
      "type": "VEC2"
    },
    {
      "bufferView": 0,
      "byteOffset": 17400,
      "componentType": 5125,
      "count": 318,
      "type": "SCALAR"
    },
    {
      "bufferView": 2,
      "byteOffset": 49752,
      "componentType": 5126,
      "count": 102,
      "max": [
        15.14242172241211,
        -89.42501068115234,
        15.691938400268555
      ],
      "min": [
        14.357236862182617,
        -101.71248626708984,
        3.40445613861084
      ],
      "type": "VEC3"
    },
    {
      "bufferView": 2,
      "byteOffset": 50976,
      "componentType": 5126,
      "count": 102,
      "max": [
        1.0,
        0.15305300056934357,
        0.15305273234844208
      ],
      "min": [
        0.9882179498672485,
        -0.15305280685424805,
        -0.15305277705192566
      ],
      "type": "VEC3"
    },
    {
      "bufferView": 1,
      "byteOffset": 16584,
      "componentType": 5126,
      "count": 102,
      "max": [
        0.11638566106557846,
        0.6076556444168091
      ],
      "min": [
        0.025413356721401215,
        0.5166833400726318
      ],
      "type": "VEC2"
    },
    {
      "bufferView": 0,
      "byteOffset": 18672,
      "componentType": 5125,
      "count": 102,
      "type": "SCALAR"
    },
    {
      "bufferView": 2,
      "byteOffset": 52200,
      "componentType": 5126,
      "count": 290,
      "max": [
        15.14242172241211,
        -86.5785140991211,
        18.538429260253906
      ],
      "min": [
        8.832708358764648,
        -104.5589828491211,
        0.5579652786254883
      ],
      "type": "VEC3"
    },
    {
      "bufferView": 2,
      "byteOffset": 55680,
      "componentType": 5126,
      "count": 290,
      "max": [
        0.9873823523521423,
        1.0,
        1.0
      ],
      "min": [
        -1.0,
        -1.0,
        -1.0
      ],
      "type": "VEC3"
    },
    {
      "bufferView": 1,
      "byteOffset": 17400,
      "componentType": 5126,
      "count": 290,
      "max": [
        0.9921945929527283,
        0.9948086738586426
      ],
      "min": [
        0.0043388232588768005,
        0.495608925819397
      ],
      "type": "VEC2"
    },
    {
      "bufferView": 0,
      "byteOffset": 19080,
      "componentType": 5125,
      "count": 318,
      "type": "SCALAR"
    },
    {
      "bufferView": 2,
      "byteOffset": 59160,
      "componentType": 5126,
      "count": 102,
      "max": [
        15.14242172241211,
        -89.42501068115234,
        15.691938400268555
      ],
      "min": [
        14.357236862182617,
        -101.71248626708984,
        3.40445613861084
      ],
      "type": "VEC3"
    },
    {
      "bufferView": 2,
      "byteOffset": 60384,
      "componentType": 5126,
      "count": 102,
      "max": [
        1.0,
        0.15305300056934357,
        0.15305273234844208
      ],
      "min": [
        0.9882179498672485,
        -0.15305280685424805,
        -0.15305277705192566
      ],
      "type": "VEC3"
    },
    {
      "bufferView": 1,
      "byteOffset": 19720,
      "componentType": 5126,
      "count": 102,
      "max": [
        0.11638566106557846,
        0.6076556444168091
      ],
      "min": [
        0.025413356721401215,
        0.5166833400726318
      ],
      "type": "VEC2"
    },
    {
      "bufferView": 0,
      "byteOffset": 20352,
      "componentType": 5125,
      "count": 102,
      "type": "SCALAR"
    },
    {
      "bufferView": 2,
      "byteOffset": 61608,
      "componentType": 5126,
      "count": 290,
      "max": [
        15.14242172241211,
        -86.5785140991211,
        18.538429260253906
      ],
      "min": [
        8.832708358764648,
        -104.5589828491211,
        0.5579652786254883
      ],
      "type": "VEC3"
    },
    {
      "bufferView": 2,
      "byteOffset": 65088,
      "componentType": 5126,
      "count": 290,
      "max": [
        0.9873823523521423,
        1.0,
        1.0
      ],
      "min": [
        -1.0,
        -1.0,
        -1.0
      ],
      "type": "VEC3"
    },
    {
      "bufferView": 1,
      "byteOffset": 20536,
      "componentType": 5126,
      "count": 290,
      "max": [
        0.9921945929527283,
        0.9948086738586426
      ],
      "min": [
        0.0043388232588768005,
        0.495608925819397
      ],
      "type": "VEC2"
    },
    {
      "bufferView": 0,
      "byteOffset": 20760,
      "componentType": 5125,
      "count": 318,
      "type": "SCALAR"
    },
    {
      "bufferView": 2,
      "byteOffset": 68568,
      "componentType": 5126,
      "count": 102,
      "max": [
        15.14242172241211,
        -89.42501068115234,
        15.691938400268555
      ],
      "min": [
        14.357236862182617,
        -101.71248626708984,
        3.40445613861084
      ],
      "type": "VEC3"
    },
    {
      "bufferView": 2,
      "byteOffset": 69792,
      "componentType": 5126,
      "count": 102,
      "max": [
        1.0,
        0.15305300056934357,
        0.15305273234844208
      ],
      "min": [
        0.9882179498672485,
        -0.15305280685424805,
        -0.15305277705192566
      ],
      "type": "VEC3"
    },
    {
      "bufferView": 1,
      "byteOffset": 22856,
      "componentType": 5126,
      "count": 102,
      "max": [
        0.11638566106557846,
        0.6076556444168091
      ],
      "min": [
        0.025413356721401215,
        0.5166833400726318
      ],
      "type": "VEC2"
    },
    {
      "bufferView": 0,
      "byteOffset": 22032,
      "componentType": 5125,
      "count": 102,
      "type": "SCALAR"
    }
  ],
  "asset": {
    "extras": {
      "author": "light game (https://sketchfab.com/gogameoffical)",
      "license": "CC-BY-4.0 (http://creativecommons.org/licenses/by/4.0/)",
      "source": "https://sketchfab.com/3d-models/tokyo-car-drift-1ce2c380104640888ac768a8a1a8128a",
      "title": "tokyo car drift"
    },
    "generator": "Sketchfab-15.42.0",
    "version": "2.0"
  },
  "bufferViews": [
    {
      "buffer": 0,
      "byteLength": 22440,
      "name": "floatBufferViews",
      "target": 34963
    },
    {
      "buffer": 0,
      "byteLength": 23672,
      "byteOffset": 22440,
      "byteStride": 8,
      "name": "floatBufferViews",
      "target": 34962
    },
    {
      "buffer": 0,
      "byteLength": 71016,
      "byteOffset": 46112,
      "byteStride": 12,
      "name": "floatBufferViews",
      "target": 34962
    }
  ],
  "buffers": [
    {
      "byteLength": 117128,
      "uri": "scene.bin"
    }
  ],
  "extensionsUsed": [
    "KHR_materials_clearcoat"
  ],
  "images": [
    {
      "uri": "textures/material_0_baseColor.png"
    }
  ],
  "materials": [
    {
      "doubleSided": true,
      "name": "material_0",
      "pbrMetallicRoughness": {
        "baseColorTexture": {
          "index": 0
        }
      }
    },
    {
      "doubleSided": true,
      "extensions": {
        "KHR_materials_clearcoat": {
          "clearcoatFactor": 1.0,
          "clearcoatRoughnessFactor": 0.04
        }
      },
      "name": "material_1",
      "pbrMetallicRoughness": {
        "baseColorTexture": {
          "index": 0
        }
      }
    },
    {
      "doubleSided": true,
      "name": "material_2",
      "pbrMetallicRoughness": {
        "baseColorFactor": [
          1.0,
          0.0,
          0.0,
          1.0
        ]
      }
    },
    {
      "doubleSided": true,
      "name": "material_3",
      "pbrMetallicRoughness": {
        "baseColorTexture": {
          "index": 0
        }
      }
    },
    {
      "doubleSided": true,
      "name": "material_4",
      "pbrMetallicRoughness": {
        "baseColorFactor": [
          1.0,
          0.0,
          0.0,
          1.0
        ]
      }
    },
    {
      "doubleSided": true,
      "name": "material_5",
      "pbrMetallicRoughness": {
        "baseColorTexture": {
          "index": 0
        }
      }
    },
    {
      "doubleSided": true,
      "name": "material_6",
      "pbrMetallicRoughness": {
        "baseColorFactor": [
          1.0,
          0.0,
          0.0,
          1.0
        ]
      }
    },
    {
      "doubleSided": true,
      "name": "material_7",
      "pbrMetallicRoughness": {
        "baseColorTexture": {
          "index": 0
        }
      }
    },
    {
      "doubleSided": true,
      "name": "material_8",
      "pbrMetallicRoughness": {
        "baseColorFactor": [
          1.0,
          0.0,
          0.0,
          1.0
        ]
      }
    }
  ],
  "meshes": [
    {
      "name": "Object_0",
      "primitives": [
        {
          "attributes": {
            "NORMAL": 1,
            "POSITION": 0,
            "TEXCOORD_0": 2
          },
          "indices": 3,
          "material": 0,
          "mode": 4
        }
      ]
    },
    {
      "name": "Object_1",
      "primitives": [
        {
          "attributes": {
            "NORMAL": 5,
            "POSITION": 4,
            "TEXCOORD_0": 6
          },
          "indices": 7,
          "material": 1,
          "mode": 4
        }
      ]
    },
    {
      "name": "Object_2",
      "primitives": [
        {
          "attributes": {
            "NORMAL": 9,
            "POSITION": 8,
            "TEXCOORD_0": 10
          },
          "indices": 11,
          "material": 2,
          "mode": 4
        }
      ]
    },
    {
      "name": "Object_3",
      "primitives": [
        {
          "attributes": {
            "NORMAL": 13,
            "POSITION": 12,
            "TEXCOORD_0": 14
          },
          "indices": 15,
          "material": 3,
          "mode": 4
        }
      ]
    },
    {
      "name": "Object_4",
      "primitives": [
        {
          "attributes": {
            "NORMAL": 17,
            "POSITION": 16,
            "TEXCOORD_0": 18
          },
          "indices": 19,
          "material": 4,
          "mode": 4
        }
      ]
    },
    {
      "name": "Object_5",
      "primitives": [
        {
          "attributes": {
            "NORMAL": 21,
            "POSITION": 20,
            "TEXCOORD_0": 22
          },
          "indices": 23,
          "material": 5,
          "mode": 4
        }
      ]
    },
    {
      "name": "Object_6",
      "primitives": [
        {
          "attributes": {
            "NORMAL": 25,
            "POSITION": 24,
            "TEXCOORD_0": 26
          },
          "indices": 27,
          "material": 6,
          "mode": 4
        }
      ]
    },
    {
      "name": "Object_7",
      "primitives": [
        {
          "attributes": {
            "NORMAL": 29,
            "POSITION": 28,
            "TEXCOORD_0": 30
          },
          "indices": 31,
          "material": 7,
          "mode": 4
        }
      ]
    },
    {
      "name": "Object_8",
      "primitives": [
        {
          "attributes": {
            "NORMAL": 33,
            "POSITION": 32,
            "TEXCOORD_0": 34
          },
          "indices": 35,
          "material": 8,
          "mode": 4
        }
      ]
    }
  ],
  "nodes": [
    {
      "children": [
        1
      ],
      "matrix": [
        0.024613909423351288,
        0.0,
        0.0,
        0.0,
        0.0,
        5.465385793568542e-18,
        -0.024613909423351288,
        0.0,
        0.0,
        0.024613909423351288,
        5.465385793568542e-18,
        0.0,
        0.0,
        0.0,
        0.0,
        1.0
      ],
      "name": "Sketchfab_model"
    },
    {
      "children": [
        2
      ],
      "name": "root"
    },
    {
      "children": [
        3,
        6,
        11,
        16,
        21
      ],
      "matrix": [
        1.0,
        0.0,
        0.0,
        0.0,
        0.0,
        2.220446049250313e-16,
        1.0,
        0.0,
        0.0,
        -1.0,
        2.220446049250313e-16,
        0.0,
        0.0,
        0.0,
        0.0,
        1.0
      ],
      "name": "GLTF_SceneRootNode"
    },
    {
      "children": [
        4
      ],
      "matrix": [
        1.0,
        0.0,
        -0.0,
        0.0,
        0.0,
        0.9999999403953419,
        1.629206752321159e-07,
        0.0,
        0.0,
        -1.629206752321159e-07,
        0.9999999403953419,
        0.0,
        0.0,
        0.0,
        0.0,
        1.0
      ],
      "name": "Body.1_0"
    },
    {
      "children": [
        5
      ],
      "matrix": [
        1.0160000324249268,
        0.0,
        0.0,
        0.0,
        0.0,
        0.0,
        -1.0159989595413208,
        0.0,
        0.0,
        1.0159989595413208,
        0.0,
        0.0,
        9.734249114990234,
        -0.400045245885849,
        -59.4462776184082,
        1.0
      ],
      "name": "_1"
    },
    {
      "mesh": 0,
      "name": "Object_5"
    },
    {
      "children": [
        7,
        9
      ],
      "matrix": [
        1.0,
        0.0,
        0.0,
        0.0,
        0.0,
        0.9999999403953419,
        1.629206752321159e-07,
        0.0,
        0.0,
        -1.629206752321159e-07,
        0.9999999403953419,
        0.0,
        21.913616180419922,
        9.300905227661133,
        37.65151596069336,
        1.0
      ],
      "name": "Wheel_FL.2_2"
    },
    {
      "children": [
        8
      ],
      "matrix": [
        1.0160000324249268,
        0.0,
        0.0,
        0.0,
        0.0,
        0.0,
        -1.0159989595413208,
        0.0,
        0.0,
        1.0159989595413208,
        0.0,
        0.0,
        -12.179367065429688,
        -9.70095157623291,
        -97.09773254394531,
        1.0
      ],
      "name": "_3"
    },
    {
      "mesh": 1,
      "name": "Object_8"
    },
    {
      "children": [
        10
      ],
      "matrix": [
        1.0160000324249268,
        0.0,
        0.0,
        0.0,
        0.0,
        0.0,
        -1.0159989595413208,
        0.0,
        0.0,
        1.0159989595413208,
        0.0,
        0.0,
        -12.179367065429688,
        -9.70095157623291,
        -97.09773254394531,
        1.0
      ],
      "name": "_4"
    },
    {
      "mesh": 2,
      "name": "Object_10"
    },
    {
      "children": [
        12,
        14
      ],
      "matrix": [
        1.0,
        0.0,
        -0.0,
        0.0,
        0.0,
        0.9999999403953419,
        1.629206752321159e-07,
        0.0,
        0.0,
        -1.629206752321159e-07,
        0.9999999403953419,
        0.0,
        22.049150466918945,
        9.300905227661133,
        -36.61655044555664,
        1.0
      ],
      "name": "Wheel_BL.3_5"
    },
    {
      "children": [
        13
      ],
      "matrix": [
        1.0160000324249268,
        0.0,
        0.0,
        0.0,
        0.0,
        0.0,
        -1.0159989595413208,
        0.0,
        0.0,
        1.0159989595413208,
        0.0,
        0.0,
        -12.179367065429688,
        -9.70095157623291,
        -97.09773254394531,
        1.0
      ],
      "name": "_6"
    },
    {
      "mesh": 3,
      "name": "Object_13"
    },
    {
      "children": [
        15
      ],
      "matrix": [
        1.0160000324249268,
        0.0,
        0.0,
        0.0,
        0.0,
        0.0,
        -1.0159989595413208,
        0.0,
        0.0,
        1.0159989595413208,
        0.0,
        0.0,
        -12.179367065429688,
        -9.70095157623291,
        -97.09773254394531,
        1.0
      ],
      "name": "_7"
    },
    {
      "mesh": 4,
      "name": "Object_15"
    },
    {
      "children": [
        17,
        19
      ],
      "matrix": [
        0.9999999999998863,
        4.7683715820306126e-07,
        -2.8421709430355136e-14,
        0.0,
        -4.768371582015489e-07,
        0.999999999996561,
        -2.5788929178773085e-06,
        0.0,
        -1.201290260840359e-12,
        2.578892917877029e-06,
        0.9999999999966747,
        0.0,
        -22.051362991333008,
        9.300911903381348,
        -36.61655044555664,
        1.0
      ],
      "name": "Wheel_BR.4_8"
    },
    {
      "children": [
        18
      ],
      "matrix": [
        -1.015999794005838,
        -8.117313444977305e-07,
        6.136462070399713e-07,
        0.0,
        -6.136450187995789e-07,
        -8.564233443692817e-07,
        -1.0159989595407746,
        0.0,
        8.117305283727871e-07,
        -1.0159981250756087,
        8.564221507455784e-07,
        0.0,
        12.179298400878906,
        9.700889587402344,
        -97.09772491455078,
        1.0
      ],
      "name": "_9"
    },
    {
      "mesh": 5,
      "name": "Object_18"
    },
    {
      "children": [
        20
      ],
      "matrix": [
        -1.015999794005838,
        -8.117313444977305e-07,
        6.136462070399713e-07,
        0.0,
        -6.136450187995789e-07,
        -8.564233443692817e-07,
        -1.0159989595407746,
        0.0,
        8.117305283727871e-07,
        -1.0159981250756087,
        8.564221507455784e-07,
        0.0,
        12.179298400878906,
        9.700889587402344,
        -97.09772491455078,
        1.0
      ],
      "name": "_10"
    },
    {
      "mesh": 6,
      "name": "Object_20"
    },
    {
      "children": [
        22,
        24
      ],
      "matrix": [
        0.9999999999998863,
        4.7683715820306126e-07,
        -2.8421709430355136e-14,
        0.0,
        -4.768371582015489e-07,
        0.999999999996561,
        -2.5788929178773085e-06,
        0.0,
        -1.201290260840359e-12,
        2.578892917877029e-06,
        0.9999999999966747,
        0.0,
        -21.915828704833984,
        9.300934791564941,
        37.65150451660156,
        1.0
      ],
      "name": "Wheel_FR.5_11"
    },
    {
      "children": [
        23
      ],
      "matrix": [
        -1.015999794005838,
        -8.117313444977305e-07,
        6.136462070399713e-07,
        0.0,
        -6.136450187995789e-07,
        -8.564233443692817e-07,
        -1.0159989595407746,
        0.0,
        8.117305283727871e-07,
        -1.0159981250756087,
        8.564221507455784e-07,
        0.0,
        12.179298400878906,
        9.700881958007813,
        -97.09774017333984,
        1.0
      ],
      "name": "_12"
    },
    {
      "mesh": 7,
      "name": "Object_23"
    },
    {
      "children": [
        25
      ],
      "matrix": [
        -1.015999794005838,
        -8.117313444977305e-07,
        6.136462070399713e-07,
        0.0,
        -6.136450187995789e-07,
        -8.564233443692817e-07,
        -1.0159989595407746,
        0.0,
        8.117305283727871e-07,
        -1.0159981250756087,
        8.564221507455784e-07,
        0.0,
        12.179298400878906,
        9.700881958007813,
        -97.09774017333984,
        1.0
      ],
      "name": "_13"
    },
    {
      "mesh": 8,
      "name": "Object_25"
    }
  ],
  "samplers": [
    {
      "magFilter": 9729,
      "minFilter": 9987,
      "wrapS": 10497,
      "wrapT": 10497
    }
  ],
  "scene": 0,
  "scenes": [
    {
      "name": "Sketchfab_Scene",
      "nodes": [
        0
      ]
    }
  ],
  "textures": [
    {
      "sampler": 0,
      "source": 0
    }
  ]
}
